PathFileType	4	(X/Y/Z)	C:/Users/opensim2020/Desktop/walking_exp_matlab/subject03_walking12_straight_01.trc																																																																																																																																														
DataRate	CameraRate	NumFrames	NumMarkers	Units	OrigDataRate	OrigDataStartFrame	OrigNumFrames																																																																																																																																										
100	100	6	48	mm	100	634	211																																																																																																																																										
Frame#	Time	LFHD			RFHD			LBHD			RBHD			C7			T10			CLAV			STRN			RBAK			LSHO			LUPA			LELB			LFRM			LWRA			LWRB			LFIN			RSHO			RUPA			RELB			RFRM			RWRA			RWRB			RFIN			LASI			RASI			LPSI			RPSI			LTHI			LKNE			LTIB			LANK			LHEE			LTOE			RTHI			RKNE			RTIB			RANK			RHEE			RTOE			*39			*40			*41			*42			*43			*44			*45			*46			*47		
		X1	Y1	Z1	X2	Y2	Z2	X3	Y3	Z3	X4	Y4	Z4	X5	Y5	Z5	X6	Y6	Z6	X7	Y7	Z7	X8	Y8	Z8	X9	Y9	Z9	X10	Y10	Z10	X11	Y11	Z11	X12	Y12	Z12	X13	Y13	Z13	X14	Y14	Z14	X15	Y15	Z15	X16	Y16	Z16	X17	Y17	Z17	X18	Y18	Z18	X19	Y19	Z19	X20	Y20	Z20	X21	Y21	Z21	X22	Y22	Z22	X23	Y23	Z23	X24	Y24	Z24	X25	Y25	Z25	X26	Y26	Z26	X27	Y27	Z27	X28	Y28	Z28	X29	Y29	Z29	X30	Y30	Z30	X31	Y31	Z31	X32	Y32	Z32	X33	Y33	Z33	X34	Y34	Z34	X35	Y35	Z35	X36	Y36	Z36	X37	Y37	Z37	X38	Y38	Z38	X39	Y39	Z39	X40	Y40	Z40	X41	Y41	Z41	X42	Y42	Z42	X43	Y43	Z43	X44	Y44	Z44	X45	Y45	Z45	X46	Y46	Z46	X47	Y47	Z47	X48	Y48	Z48
																																																																																																																																																	
80	0.79	-520.04181	1610.052	-1088.44116	-534.60669	1621.66675	-956.29773	-629.60504	1531.7345	-1091.4231	-640.2998	1543.23987	-961.26093	-630.61218	1395.07715	-1029.46399	-680.56201	1091.93262	-1021.68146	-506.50085	1321.43298	-1015.25525	-470.3746	1151.53931	-1014.08142	-690.96899	1228.75366	-929.60834	-536.47882	1355.85596	-1175.91553	-574.60242	1160.51563	-1245.27747	-596.85077	1039.48547	-1257.44324	-612.21906	909.34662	-1261.14087	-640.6803	790.17493	-1236.48938	-651.52307	804.59576	-1290.38635	-702.38916	728.45038	-1277.5863	-565.16992	1350.9364	-860.99445	-551.45532	1132.31995	-784.93481	-523.11255	1023.11951	-772.35974	-477.89941	894.19403	-773.85571	-426.44858	810.98553	-812.84418	-455.52216	796.46985	-769.75769	-412.32639	737.13208	-780.88611	-513.72278	927.35242	-1121.35059	-542.15607	910.75751	-889.50385	-681.67859	949.46564	-1093.62488	-695.40692	946.2876	-944.05255	-509.79117	632.1228	-1180.11462	-457.983	464.40317	-1137.49011	-512.77557	270.65375	-1142.19385	-552.59839	65.30159	-1099.65833	-597.6142	31.50154	-1066.00793	-404.85931	29.79696	-1068.1311	-598.78467	610.47711	-847.96704	-571.38422	431.11307	-865.59198	-725.78778	323.56393	-870.65167	-905.32959	209.87636	-917.74713	-949.89264	228.69609	-975.14209	-873.89209	70.63326	-925.1394	-621.50464	1646.12012	-1049.67542	NaN	NaN	NaN	NaN	NaN	NaN	NaN	NaN	NaN	NaN	NaN	NaN	NaN	NaN	NaN	NaN	NaN	NaN	NaN	NaN	NaN	NaN	NaN	NaN
81	0.8	-507.01416	1611.55579	-1089.22595	-521.97168	1623.34753	-957.01593	-616.55493	1533.24963	-1092.27112	-627.44611	1545.00757	-962.16901	-617.45068	1396.83508	-1030.62512	-667.18658	1093.36243	-1023.20129	-493.69452	1323.14343	-1015.34357	-457.26294	1153.3772	-1013.9635	-678.91418	1229.78528	-932.14996	-522.14288	1357.14795	-1176.45532	-556.60193	1161.02734	-1245.58008	-577.52863	1039.98474	-1258.2157	-591.03607	909.63647	-1262.06995	-617.95074	790.06372	-1237.65796	-628.57733	804.28479	-1291.69958	-677.6123	727.04584	-1279.73279	-554.03595	1352.14478	-861.37561	-542.11902	1133.13647	-785.72211	-514.58978	1023.67163	-773.07697	-470.91043	894.11273	-774.16766	-420.06879	810.11719	-812.5766	-449.86783	796.11407	-769.73871	-407.79434	735.82098	-780.72583	-500.39264	928.3562	-1122.40308	-528.90668	912.21967	-890.44977	-668.48596	951.17242	-1094.31116	-682.01538	947.58691	-944.85791	-500.43829	632.7464	-1180.49902	-452.55115	463.58377	-1137.77441	-510.05753	270.30936	-1142.63696	-552.48865	65.28354	-1099.96741	-598.08905	32.07851	-1065.85938	-404.87216	29.69905	-1068.09741	-579.9931	612.44592	-849.4342	-546.26056	434.14005	-866.36304	-699.39929	325.85803	-872.7937	-878.13776	210.99292	-920.70776	-923.58209	228.4393	-978.27393	-842.40662	72.96136	-927.60876	-608.47717	1647.21472	-1050.36658	NaN	NaN	NaN	NaN	NaN	NaN	NaN	NaN	NaN	NaN	NaN	NaN	NaN	NaN	NaN	NaN	NaN	NaN	NaN	NaN	NaN	NaN	NaN	NaN
82	0.81	-493.9552	1613.12671	-1089.89392	-509.52313	1624.84277	-957.9989	-603.48804	1534.84082	-1093.00916	-614.6864	1546.86816	-962.90198	-604.55792	1398.61621	-1031.59167	-653.85333	1094.84924	-1024.6134	-480.94266	1324.92114	-1015.50427	-444.21112	1155.27441	-1013.97382	-666.91998	1231.09961	-934.43921	-507.99359	1358.69226	-1176.97327	-538.69464	1161.76941	-1245.92126	-557.95697	1040.45325	-1258.77576	-569.43115	910.05774	-1262.63306	-594.60284	790.13306	-1238.65283	-604.80658	804.06091	-1292.74146	-651.25049	725.40845	-1281.77966	-542.93335	1353.44739	-861.73895	-533.09253	1134.04858	-786.48584	-506.29907	1024.328	-773.70129	-464.36005	894.13971	-774.1604	-414.29156	809.38605	-812.17865	-444.71213	795.79083	-769.7168	-403.58417	734.70837	-780.44952	-487.24774	929.62238	-1123.63953	-515.4375	914.07294	-891.47168	-655.28632	952.86621	-1094.86865	-668.59296	949.32965	-945.55927	-490.78491	633.45819	-1181.02026	-447.46359	462.83786	-1138.00989	-507.5556	270.07974	-1143.09338	-552.29633	65.37703	-1100.30786	-597.77667	32.07298	-1066.4519	-404.92154	29.57115	-1068.03748	-559.69928	614.60199	-850.87378	-521.01813	437.60663	-867.45752	-672.57239	327.22461	-874.42499	-849.51288	209.86996	-923.70721	-896.32251	225.99768	-980.93658	-808.98944	73.4381	-931.26392	-595.46094	1648.81104	-1051.24231	NaN	NaN	NaN	NaN	NaN	NaN	NaN	NaN	NaN	NaN	NaN	NaN	NaN	NaN	NaN	NaN	NaN	NaN	NaN	NaN	NaN	NaN	NaN	NaN
83	0.82	-480.90176	1614.76733	-1090.51672	-496.67288	1626.65356	-958.59009	-590.42761	1536.48999	-1093.60474	-601.72089	1548.61377	-963.59113	-591.75537	1400.39746	-1032.47681	-640.62042	1096.43481	-1025.98608	-468.31058	1326.72363	-1015.56836	-431.2132	1157.22229	-1014.1167	-655.07062	1232.63965	-936.3623	-494.12704	1360.28101	-1177.29541	-521.05609	1162.74121	-1246.10254	-538.20337	1041.19727	-1259.28101	-547.28235	910.59821	-1262.97595	-570.63013	790.42352	-1239.28308	-580.28143	803.9743	-1293.45679	-623.34814	723.7439	-1283.65991	-531.67157	1354.83569	-862.17285	-524.17224	1135.05444	-787.26758	-498.35599	1025.11755	-774.29681	-458.16339	894.24036	-774.30243	-408.84708	808.78296	-811.73047	-440.01102	795.59589	-769.63074	-399.75739	733.77045	-779.94604	-474.21429	930.96368	-1124.96069	-501.82382	916.30121	-892.70361	-642.13599	954.62854	-1095.40466	-655.13739	951.38757	-946.1424	-481.13019	634.13489	-1181.26648	-442.82471	462.08026	-1138.11121	-505.36145	269.93057	-1143.48718	-552.24695	65.79634	-1100.25012	-598.15125	32.74997	-1066.33167	-404.87396	29.47266	-1068.00159	-538.75555	616.73657	-852.12158	-495.75357	441.14975	-868.72485	-645.34735	327.84723	-876.02332	-820.04852	207.12616	-926.28369	-868.12219	221.30469	-983.16083	-773.25897	72.68499	-935.29364	-582.45355	1650.41516	-1052.03882	NaN	NaN	NaN	NaN	NaN	NaN	NaN	NaN	NaN	NaN	NaN	NaN	NaN	NaN	NaN	NaN	NaN	NaN	NaN	NaN	NaN	NaN	NaN	NaN
84	0.83	-467.81415	1616.39893	-1090.87634	-483.68417	1628.37549	-959.03851	-577.37738	1538.16809	-1094.1449	-588.85736	1550.3833	-964.12927	-579.11053	1402.06726	-1033.39087	-627.3949	1097.97546	-1027.27344	-455.72565	1328.48975	-1015.68347	-418.28339	1159.09766	-1014.17206	-642.68433	1234.1626	-938.18945	-480.50851	1361.93091	-1177.42566	-503.61447	1163.96594	-1246.40027	-518.21027	1042.17358	-1259.5	-524.78485	911.36133	-1263.06665	-546.1781	790.97308	-1239.58923	-555.07806	804.0849	-1293.89148	-593.5769	722.38672	-1285.56128	-520.49597	1356.29382	-862.60858	-515.46338	1136.17639	-787.98853	-490.63925	1025.97449	-774.80957	-452.26471	894.44623	-774.44281	-403.90903	808.17682	-811.21454	-435.77985	795.57367	-769.53778	-396.26355	733.08765	-779.28589	-461.20599	932.50403	-1126.39905	-488.18628	918.65906	-893.84283	-628.86224	956.38	-1095.93506	-641.70966	953.5744	-946.68927	-471.64493	634.43286	-1182.28394	-438.51355	461.40112	-1138.22119	-503.55939	269.96008	-1143.7666	-552.14563	66.0808	-1100.55383	-598.16772	33.158	-1066.46692	-404.91098	29.35426	-1067.93628	-518.01727	618.8905	-853.16296	-470.87115	444.7139	-870.07648	-617.91241	327.8179	-877.84985	-789.47308	202.54158	-928.70477	-838.86163	214.68027	-985.08783	-735.47626	71.02036	-939.33929	-569.4129	1652.63062	-1052.90552	NaN	NaN	NaN	NaN	NaN	NaN	NaN	NaN	NaN	NaN	NaN	NaN	NaN	NaN	NaN	NaN	NaN	NaN	NaN	NaN	NaN	NaN	NaN	NaN
85	0.84	-454.68591	1617.92285	-1091.12708	-470.75656	1629.92224	-959.31824	-564.28534	1539.82617	-1094.55554	-575.8844	1552.04663	-964.59338	-566.54791	1403.63428	-1034.33752	-614.21167	1099.41772	-1028.38818	-443.41357	1330.09912	-1015.76434	-405.08865	1161.23535	-1014.29108	-630.61176	1235.81311	-939.61115	-466.96622	1363.68176	-1177.61011	-486.39572	1165.35095	-1246.71973	-498.20609	1043.2229	-1259.73828	-501.94931	912.36346	-1262.97339	-521.3941	791.71124	-1239.56897	-529.31836	804.48047	-1294.01526	-563.28186	720.93335	-1286.46667	-509.18539	1357.80945	-863.1485	-506.69342	1137.44556	-788.69189	-483.24432	1026.79407	-775.42047	-446.55664	894.83673	-774.67505	-399.15213	807.75232	-810.75873	-431.79163	795.61224	-769.45081	-393.05466	732.62054	-778.52014	-448.37036	933.93024	-1127.59729	-474.35431	921.17059	-895.16547	-615.5744	958.09851	-1096.4762	-628.22418	955.75354	-947.26721	-463.32507	634.45038	-1182.07495	-434.59915	460.85532	-1138.25049	-502.10669	270.16632	-1144.05042	-551.66016	66.57349	-1100.60034	-598.3479	33.76399	-1067.00366	-404.91003	29.21486	-1067.9248	-497.77121	621.26392	-854.16846	-446.49377	448.33456	-871.50256	-590.15149	327.12674	-879.7915	-757.54626	196.32979	-931.10687	-808.35815	206.12633	-986.85004	-695.91632	68.69743	-943.3017	-556.28436	1654.23389	-1053.3595	NaN	NaN	NaN	NaN	NaN	NaN	NaN	NaN	NaN	NaN	NaN	NaN	NaN	NaN	NaN	NaN	NaN	NaN	NaN	NaN	NaN	NaN	NaN	NaN
